<svg width="250" height="250" viewBox="0 0 250 250" fill="none" xmlns="http://www.w3.org/2000/svg">
<g clip-path="url(#clip0_1_2)">
<rect width="250" height="250" rx="50" fill="#1C1D21"/>
<path d="M140.6 195L112.6 143H108.4V195H69.2V54H131C142.333 54 151.933 56 159.8 60C167.667 63.8667 173.6 69.2667 177.6 76.2C181.6 83 183.6 90.6667 183.6 99.2C183.6 108.8 180.933 117.267 175.6 124.6C170.4 131.8 162.733 136.933 152.6 140L184.4 195H140.6ZM108.4 116.2H127.8C133.133 116.2 137.133 114.933 139.8 112.4C142.467 109.867 143.8 106.2 143.8 101.4C143.8 96.8667 142.4 93.3333 139.6 90.8C136.933 88.1333 133 86.8 127.8 86.8H108.4V116.2Z" fill="#E50A77"/>
</g>
<defs>
<clipPath id="clip0_1_2">
<rect width="250" height="250" rx="50" fill="white"/>
</clipPath>
</defs>
</svg>
